<?xml version="1.0" standalone="no"?>
<!DOCTYPE svg PUBLIC "-//W3C//DTD SVG 20010904//EN"
 "http://www.w3.org/TR/2001/REC-SVG-20010904/DTD/svg10.dtd">
<svg version="1.0" xmlns="http://www.w3.org/2000/svg"
 width="1850.000000pt" height="1850.000000pt" viewBox="0 0 1850.000000 1850.000000"
 preserveAspectRatio="xMidYMid meet">
<metadata>
Created by potrace 1.11, written by Peter Selinger 2001-2013
</metadata>
<g transform="translate(0.000000,1850.000000) scale(0.100000,-0.100000)"
fill="#000000" stroke="none">
<path d="M0 9245 l0 -7355 9250 0 9250 0 0 7355 0 7355 -9250 0 -9250 0 0
-7355z m18460 0 l0 -7315 -9210 0 -9210 0 0 7315 0 7315 9210 0 9210 0 0
-7315z"/>
<path d="M6906 14640 c11 -300 11 -838 1 -1141 l-9 -235 116 -1 116 0 -7 146
c-4 80 -8 254 -8 386 l0 240 41 3 c39 3 44 0 99 -60 82 -88 360 -438 469 -590
l91 -128 141 3 142 2 -51 60 c-95 114 -587 724 -587 728 0 2 33 12 73 22 279
67 443 281 397 518 -20 108 -76 180 -181 233 -91 46 -164 53 -523 51 l-328 -1
8 -236z m599 135 c63 -18 135 -63 168 -106 38 -51 61 -141 54 -216 -20 -211
-185 -323 -476 -323 -64 0 -122 4 -130 9 -11 7 -13 60 -6 322 4 173 9 316 11
319 8 7 224 17 279 13 28 -3 73 -11 100 -18z"/>
<path d="M8367 14680 c4 -107 7 -449 7 -760 -1 -495 -3 -575 -18 -645 -39
-180 -125 -275 -250 -275 -25 0 -28 -3 -22 -22 3 -13 6 -29 6 -37 0 -28 125
-6 217 38 135 65 236 195 264 341 6 35 9 267 8 650 -1 327 1 665 6 750 l7 155
-116 0 -117 0 8 -195z"/>
<path d="M9035 14071 l0 -806 344 -3 c353 -3 425 2 572 38 256 65 456 247 540
493 35 102 54 262 45 376 -26 340 -135 527 -373 637 -140 66 -149 67 -663 69
l-465 2 0 -806z m850 685 c206 -57 319 -170 387 -386 21 -67 23 -94 23 -260 0
-217 -14 -297 -75 -418 -84 -166 -212 -274 -376 -316 -105 -26 -261 -39 -399
-32 -71 3 -143 10 -160 14 -30 8 -30 9 -37 103 -4 52 -5 363 -1 692 5 488 8
600 19 604 70 27 522 26 619 -1z"/>
<path d="M8560 12054 c-19 -2 -84 -9 -145 -15 -338 -33 -694 -123 -999 -250
-447 -188 -821 -443 -1192 -813 -446 -447 -746 -930 -929 -1497 l-44 -139 33
-77 c379 -884 1164 -1652 2046 -2003 871 -346 1944 -339 2810 17 137 56 386
186 523 271 255 161 484 349 727 599 409 421 689 877 867 1412 l54 165 -27 65
c-284 679 -875 1358 -1532 1758 -288 175 -625 318 -941 398 -328 83 -517 106
-906 110 -170 2 -326 1 -345 -1z m685 -604 c498 -86 939 -285 1340 -605 130
-103 388 -362 495 -495 122 -153 251 -354 335 -523 l74 -149 -45 -131 c-204
-594 -624 -1127 -1189 -1507 -213 -143 -438 -252 -690 -335 -122 -41 -341 -95
-380 -95 -10 0 13 22 53 50 155 109 371 340 504 540 319 479 441 1120 337
1770 -58 364 -192 689 -403 974 -141 191 -329 367 -499 468 -49 29 -90 55 -92
59 -5 7 -4 7 160 -21z m-1488 -300 c41 -96 77 -177 79 -179 2 -2 25 10 51 27
291 187 681 211 1001 61 251 -116 482 -358 635 -666 222 -443 259 -1043 95
-1543 -132 -404 -441 -776 -757 -910 -220 -94 -480 -110 -708 -44 -187 54
-311 131 -473 294 -280 280 -442 620 -495 1040 -22 172 -16 491 13 648 l18
104 -159 80 c-88 43 -160 78 -162 76 -5 -5 -43 -205 -57 -298 -17 -115 -17
-605 0 -720 37 -247 94 -451 176 -636 119 -269 328 -559 526 -728 l55 -47 -40
15 c-221 78 -498 221 -685 355 -433 308 -796 729 -1008 1169 -63 132 -63 122
5 312 94 261 268 571 443 785 302 371 709 697 1086 871 106 49 267 114 277
111 5 -1 42 -81 84 -177z"/>
<path d="M8267 10770 c-129 -23 -305 -100 -299 -130 3 -15 493 -1272 498
-1278 1 -2 7 21 13 51 21 99 59 153 188 266 l82 73 -15 41 c-23 65 -44 214
-44 313 0 152 53 280 163 391 60 61 65 60 115 -35 49 -92 64 -162 65 -291 1
-189 -49 -338 -152 -452 -48 -53 -49 -57 -41 -95 4 -21 13 -65 20 -96 11 -58
12 -58 48 -58 121 0 234 -141 235 -293 0 -114 -49 -201 -152 -267 -24 -16 -24
-16 -12 -112 25 -217 5 -284 -104 -341 -125 -65 -274 22 -291 170 -5 42 -2 53
25 90 60 83 118 90 190 24 33 -30 41 -45 41 -72 0 -55 -17 -100 -51 -135 l-32
-33 26 -10 c31 -12 82 -4 114 16 28 18 53 82 53 136 0 23 -7 85 -16 138 l-17
96 -86 6 c-202 12 -302 102 -345 309 -9 42 -16 94 -16 115 l0 38 -506 253
c-278 139 -509 250 -513 248 -18 -11 -36 -199 -35 -366 1 -275 43 -460 151
-673 165 -323 407 -523 694 -573 398 -69 766 152 980 591 106 217 143 392 142
675 0 282 -37 460 -142 675 -145 297 -368 503 -623 575 -83 24 -272 35 -351
20z"/>
<path d="M8858 10373 c-52 -53 -76 -114 -89 -228 -18 -154 -1 -335 32 -335 17
0 101 107 128 164 41 88 56 157 56 273 0 88 -3 105 -21 130 -31 42 -62 41
-106 -4z"/>
<path d="M8700 9553 c-33 -35 -71 -90 -95 -137 -35 -69 -40 -90 -44 -158 -5
-129 41 -217 147 -282 54 -33 67 -36 131 -36 l72 0 -6 48 c-14 99 -45 288 -53
316 -4 16 -13 31 -19 33 -19 7 -80 -61 -92 -102 -19 -70 -14 -101 23 -142 73
-82 48 -116 -29 -39 -100 101 -97 273 8 362 19 16 41 34 50 39 15 9 15 18 5
83 -8 53 -16 72 -27 72 -8 0 -40 -26 -71 -57z"/>
<path d="M8901 9343 c1 -63 55 -377 66 -380 6 -2 24 8 41 22 95 79 76 312 -29
365 -56 29 -79 26 -78 -7z"/>
<path d="M3900 11896 c-613 -322 -1085 -624 -1455 -930 -159 -132 -427 -396
-528 -521 -149 -185 -287 -415 -353 -592 -102 -272 -111 -587 -23 -856 180
-550 731 -1077 1625 -1555 264 -141 794 -377 914 -406 l25 -6 -25 12 c-14 7
-98 45 -188 85 -1105 496 -1748 1087 -1900 1748 -64 277 -48 547 52 848 177
536 567 1067 1178 1603 253 222 640 517 835 636 72 44 91 58 81 58 -2 0 -109
-56 -238 -124z"/>
<path d="M5105 11896 c-607 -314 -1143 -661 -1532 -993 -166 -142 -413 -397
-515 -534 -241 -321 -355 -600 -375 -914 -50 -818 778 -1655 2265 -2289 153
-66 343 -138 348 -133 2 2 -72 36 -164 77 -830 367 -1424 804 -1725 1270 -191
296 -280 638 -247 955 69 678 555 1406 1410 2115 178 148 466 364 615 463 121
80 132 87 124 87 -2 0 -94 -47 -204 -104z"/>
<path d="M6314 11901 c-556 -287 -1033 -589 -1429 -905 -166 -133 -473 -433
-579 -566 -214 -270 -356 -558 -401 -814 -20 -116 -20 -338 0 -447 47 -252
181 -518 383 -759 362 -433 955 -839 1730 -1187 162 -72 472 -196 478 -190 2
2 -72 36 -164 77 -830 367 -1424 804 -1725 1270 -287 444 -327 933 -120 1460
112 285 278 555 541 880 122 150 529 553 717 709 198 165 481 379 640 484 121
80 132 87 124 87 -2 0 -90 -45 -195 -99z"/>
<path d="M11835 11753 c948 -495 1448 -1013 1582 -1643 28 -130 25 -438 -6
-580 -87 -408 -310 -821 -674 -1249 -129 -152 -456 -475 -637 -629 -92 -79
-300 -235 -511 -385 -196 -139 -356 -253 -354 -255 3 -4 400 204 560 293 456
255 883 542 1200 806 141 117 407 385 502 505 198 250 314 470 379 719 35 132
45 391 20 531 -53 307 -225 609 -515 908 -292 300 -663 562 -1165 826 -104 55
-487 225 -556 247 -8 2 71 -40 175 -94z"/>
<path d="M13027 11762 c493 -258 824 -491 1099 -774 225 -231 359 -442 444
-697 55 -165 73 -277 73 -456 1 -684 -466 -1439 -1367 -2210 -70 -60 -280
-217 -465 -348 -185 -131 -340 -243 -346 -249 -16 -17 276 133 485 250 677
377 1129 700 1511 1082 208 208 330 359 435 537 269 456 294 914 75 1351 -243
484 -779 952 -1546 1348 -129 67 -489 229 -555 251 -8 3 63 -36 157 -85z"/>
<path d="M14246 11752 c940 -490 1438 -1006 1576 -1630 30 -133 32 -410 4
-557 -96 -516 -405 -1025 -961 -1580 -279 -279 -461 -430 -854 -708 -185 -131
-340 -243 -346 -249 -13 -14 343 168 510 262 1267 708 1968 1402 2121 2101 25
117 30 336 9 460 -102 611 -659 1199 -1630 1722 -125 67 -517 245 -605 274 -8
2 71 -40 176 -95z"/>
<path d="M5788 5910 c-119 -21 -191 -58 -274 -140 -117 -116 -165 -231 -172
-412 -5 -136 12 -234 58 -325 95 -188 251 -291 455 -300 123 -6 222 13 319 61
l69 34 46 -24 c25 -13 55 -24 66 -26 23 -3 21 -33 17 337 l-2 205 -112 0 -111
0 7 -137 c4 -76 8 -149 9 -162 2 -20 -7 -29 -44 -48 -101 -52 -241 -68 -333
-37 -55 19 -144 96 -179 157 -43 74 -60 149 -55 256 3 82 8 106 35 161 42 88
92 143 165 179 51 26 73 31 132 31 99 0 160 -30 249 -122 l70 -72 58 64 c34
38 58 74 59 88 0 55 -152 177 -267 212 -75 23 -198 32 -265 20z"/>
<path d="M6967 5913 l-88 -4 -14 -32 c-98 -219 -425 -1071 -425 -1107 0 -19 6
-20 104 -20 l104 0 16 43 c8 23 22 67 32 97 9 30 23 67 31 83 l14 27 234 0
235 0 20 -32 c11 -18 28 -58 36 -88 9 -30 23 -71 31 -91 l14 -35 109 0 c79 0
110 3 110 12 0 6 -36 103 -81 215 -45 112 -144 364 -220 559 -133 338 -153
383 -168 378 -3 -1 -46 -4 -94 -5z m116 -513 c76 -199 76 -195 36 -209 -41
-14 -264 -14 -291 0 -27 15 -23 31 58 247 90 239 81 227 114 161 15 -30 52
-119 83 -199z"/>
<path d="M11265 5913 l-91 -4 -16 -42 c-9 -23 -57 -141 -108 -262 -77 -187
-320 -830 -320 -849 0 -3 49 -6 110 -6 l109 0 32 103 c50 162 19 147 294 147
270 0 250 8 285 -110 11 -36 27 -81 36 -101 l15 -35 110 0 c78 0 109 3 109 12
0 12 -389 997 -433 1097 -14 31 -30 56 -34 55 -4 -1 -49 -4 -98 -5z m63 -380
c59 -140 112 -287 112 -314 0 -12 -11 -23 -27 -30 -37 -14 -288 -8 -303 7 -13
13 -3 43 94 293 56 142 64 161 70 161 2 0 26 -53 54 -117z"/>
<path d="M8504 5888 c-3 -4 0 -128 6 -275 9 -202 9 -337 -1 -550 -6 -155 -9
-288 -6 -297 5 -13 37 -14 249 -9 144 3 293 1 367 -5 69 -6 127 -9 130 -7 4 5
16 67 27 149 l7 49 -49 -6 c-27 -4 -143 -10 -259 -13 -274 -9 -259 -19 -263
171 -3 93 0 141 8 149 8 7 88 11 258 11 l247 0 7 85 c3 47 3 88 0 91 -4 3
-108 3 -232 -1 -256 -9 -278 -7 -286 26 -12 46 0 240 16 259 14 16 32 17 266
10 172 -4 254 -3 258 4 8 12 -13 142 -25 155 -10 11 -719 15 -725 4z"/>
<path d="M9521 5893 l-114 -4 7 -127 c9 -168 9 -610 0 -832 l-7 -176 113 -1
113 -1 -6 187 c-5 137 -3 191 5 199 8 8 52 12 124 12 92 0 115 -3 133 -17 11
-10 49 -86 85 -169 35 -83 71 -165 80 -181 l15 -30 115 0 c64 1 116 4 116 8 0
10 -42 105 -121 270 -38 81 -69 152 -69 158 0 7 27 37 59 67 90 83 106 123
106 269 0 105 -3 127 -24 172 -42 94 -148 170 -266 192 -55 10 -189 11 -464 4z
m399 -174 c99 -21 149 -93 150 -214 0 -88 -21 -131 -81 -165 -39 -22 -58 -25
-172 -28 -70 -2 -144 -1 -163 2 l-34 7 0 189 c0 158 3 191 16 204 12 13 39 16
124 16 60 0 132 -5 160 -11z"/>
<path d="M10413 5887 c-2 -4 1 -101 8 -215 8 -144 10 -296 4 -497 -4 -159 -8
-319 -9 -355 l-1 -65 110 -1 110 -2 0 571 -1 571 -108 0 c-59 1 -110 -3 -113
-7z"/>
<path d="M12177 5889 c-94 -22 -166 -80 -208 -165 -28 -55 -32 -77 -33 -142
-1 -144 36 -197 213 -302 158 -93 188 -128 176 -206 -14 -94 -103 -138 -275
-133 -55 2 -102 0 -106 -3 -6 -7 20 -131 37 -175 8 -21 15 -23 94 -23 203 0
365 82 432 218 25 51 28 68 28 157 0 91 -2 104 -27 146 -37 63 -73 91 -197
154 -134 67 -174 107 -174 170 0 57 25 93 78 112 50 18 105 12 210 -21 44 -15
81 -22 83 -18 1 4 20 43 41 85 38 76 38 76 17 90 -85 54 -279 82 -389 56z"/>
<path d="M7629 5886 c-2 -2 -1 -76 4 -163 4 -87 6 -340 5 -563 l-3 -405 377
-2 377 -1 6 31 c4 18 5 61 3 97 -3 58 -5 65 -23 63 -124 -15 -294 -24 -400
-21 l-130 3 2 483 2 482 -108 0 c-59 0 -110 -2 -112 -4z"/>
<path d="M3460 4077 c-62 -17 -109 -48 -160 -103 -69 -75 -85 -121 -85 -244 0
-94 3 -111 27 -160 33 -68 105 -141 167 -172 68 -33 206 -32 276 2 64 32 127
96 162 168 25 51 28 67 28 162 0 94 -3 111 -27 160 -35 71 -100 137 -165 167
-63 29 -161 38 -223 20z m166 -126 c206 -94 161 -440 -61 -459 -29 -2 -69 1
-89 8 -45 15 -118 95 -134 148 -47 156 57 322 203 322 22 0 58 -9 81 -19z"/>
<path d="M3985 4073 l-30 -4 0 -339 0 -340 58 0 c49 0 57 3 57 18 0 31 11 33
42 7 34 -29 81 -39 149 -33 112 11 189 110 189 242 0 151 -86 246 -220 246
-49 0 -121 -27 -135 -50 -19 -30 -24 2 -18 125 l6 135 -34 -2 c-19 0 -48 -3
-64 -5z m291 -322 c61 -37 81 -128 44 -201 -39 -76 -132 -94 -195 -39 -69 61
-71 155 -5 221 32 32 44 38 81 38 25 0 57 -8 75 -19z"/>
<path d="M10957 3933 l6 -138 -24 18 c-78 57 -82 58 -151 55 -87 -5 -141 -39
-180 -117 -23 -45 -28 -68 -28 -128 0 -87 17 -133 67 -185 76 -78 192 -83 291
-12 21 16 22 15 28 -13 5 -27 8 -28 52 -27 26 1 49 3 52 3 3 1 6 154 7 341 l1
340 -63 0 -63 0 5 -137z m-57 -195 c38 -38 50 -66 50 -119 0 -82 -53 -139
-131 -139 -36 0 -55 6 -77 25 -107 90 -51 265 85 265 33 0 48 -6 73 -32z"/>
<path d="M11656 4013 c4 -32 8 -185 8 -340 l1 -283 55 0 56 0 -1 340 0 340
-63 0 -63 0 7 -57z"/>
<path d="M14060 3933 l0 -136 -22 20 c-67 61 -154 70 -239 25 -46 -24 -59 -37
-87 -92 -32 -61 -34 -70 -30 -140 9 -147 87 -231 217 -231 57 -1 130 25 146
51 11 18 24 10 27 -17 3 -25 6 -27 51 -28 l49 0 3 343 4 342 -59 0 -60 0 0
-137z m-55 -196 c67 -67 69 -168 3 -229 -23 -22 -40 -28 -73 -28 -24 0 -55 4
-68 9 -57 22 -94 126 -67 191 7 16 28 44 47 60 27 24 43 30 79 30 39 0 51 -5
79 -33z"/>
<path d="M13498 4019 c-12 -7 -18 -22 -18 -49 0 -43 18 -60 65 -60 14 0 35 5
46 10 25 14 26 71 1 93 -21 19 -68 22 -94 6z"/>
<path d="M7815 4010 c-4 -6 -4 -42 0 -79 7 -71 1 -85 -40 -93 -16 -3 -20 -11
-20 -43 0 -36 3 -40 30 -45 l30 -5 -3 -139 c-3 -155 4 -188 49 -211 33 -17
118 -19 172 -4 35 9 37 12 37 51 l0 41 -53 -7 c-82 -9 -91 2 -96 114 -1 50 0
107 3 126 l7 34 63 0 64 0 4 43 c3 23 3 45 1 50 -2 4 -33 7 -69 7 l-64 0 0 75
0 74 -37 6 c-21 4 -45 9 -55 11 -9 3 -19 0 -23 -6z"/>
<path d="M4608 3856 c-26 -7 -55 -19 -64 -27 -25 -20 -44 -72 -44 -117 0 -50
27 -85 91 -117 55 -29 75 -56 60 -84 -13 -24 -32 -31 -87 -31 l-44 0 0 -37 c0
-59 10 -66 73 -61 174 14 227 191 85 282 -77 48 -84 60 -59 85 14 14 34 21 57
21 l37 0 -7 42 c-11 65 -13 67 -98 44z"/>
<path d="M4935 3853 c-87 -45 -135 -130 -135 -237 0 -152 88 -237 245 -238 79
0 145 22 179 60 16 19 17 25 6 52 -7 17 -16 33 -20 35 -4 3 -28 -7 -53 -20
-62 -35 -132 -42 -177 -17 -35 19 -78 67 -69 77 3 3 75 12 160 20 177 17 185
21 174 95 -12 81 -65 156 -128 179 -42 16 -147 13 -182 -6z m155 -100 c16 -16
31 -39 32 -52 4 -30 -19 -37 -128 -42 -76 -4 -79 -3 -82 19 -3 16 8 35 36 62
50 51 96 54 142 13z"/>
<path d="M6275 3851 c-43 -19 -84 -62 -112 -115 -25 -45 -24 -179 1 -226 23
-44 73 -97 108 -116 57 -30 158 -17 217 28 32 24 38 23 45 -12 5 -27 9 -30 43
-30 66 0 66 2 58 148 -5 88 -3 160 5 217 7 47 10 89 7 92 -3 3 -26 8 -50 10
-43 5 -45 4 -52 -25 l-6 -30 -25 25 c-54 54 -162 69 -239 34z m189 -102 c37
-29 56 -71 56 -124 0 -89 -51 -145 -131 -145 -40 0 -53 5 -82 33 -56 53 -66
124 -27 196 30 58 133 80 184 40z"/>
<path d="M7079 3842 c-166 -86 -166 -349 -1 -440 75 -42 174 -29 239 30 l22
20 6 -36 c7 -32 10 -36 39 -36 78 0 74 -8 69 178 -3 92 -1 191 5 220 9 52 9
54 -16 63 -41 16 -77 7 -80 -18 -4 -27 -14 -29 -33 -7 -49 59 -164 71 -250 26z
m191 -87 c38 -20 63 -68 64 -125 2 -91 -50 -150 -132 -150 -32 0 -49 7 -77 31
-69 61 -71 155 -5 221 31 32 44 38 79 38 23 0 55 -7 71 -15z"/>
<path d="M8607 3860 c-104 -31 -174 -173 -147 -296 21 -95 90 -167 174 -183
60 -11 109 0 162 37 l42 30 7 -34 c5 -31 9 -34 43 -34 65 0 66 3 59 147 -4 77
-2 163 4 216 7 48 9 90 6 93 -3 4 -26 9 -52 11 -41 5 -45 4 -45 -15 0 -28 -15
-35 -31 -15 -37 44 -148 65 -222 43z m176 -120 c70 -61 71 -168 2 -229 -88
-77 -215 -9 -215 115 0 120 128 189 213 114z"/>
<path d="M9665 3853 c-88 -46 -135 -128 -135 -235 0 -154 87 -239 246 -240 78
0 143 22 179 62 15 17 16 24 5 50 -7 17 -16 33 -20 35 -4 3 -28 -7 -53 -20
-62 -35 -132 -42 -177 -17 -35 19 -78 67 -69 77 3 3 75 12 159 20 84 8 158 19
164 25 16 16 8 107 -13 148 -23 45 -66 87 -104 101 -42 16 -147 13 -182 -6z
m153 -100 c18 -16 33 -39 35 -52 3 -30 -20 -37 -129 -42 -76 -4 -79 -3 -82 19
-3 16 8 35 36 62 50 50 92 54 140 13z"/>
<path d="M10137 3859 c-81 -19 -123 -76 -114 -156 5 -51 26 -77 82 -105 77
-39 90 -63 55 -98 -15 -15 -33 -20 -71 -20 l-51 0 6 -31 c3 -17 6 -40 6 -50 0
-28 82 -26 140 4 55 28 81 63 87 119 7 62 -15 100 -85 146 -31 20 -58 46 -60
57 -5 25 24 45 65 45 28 0 33 3 33 24 0 40 -18 76 -37 75 -10 -1 -35 -5 -56
-10z"/>
<path d="M11269 3850 c-80 -43 -128 -130 -129 -233 0 -77 14 -118 59 -169 43
-49 98 -69 188 -69 79 0 142 22 178 61 15 17 16 24 5 50 -7 17 -16 33 -21 36
-5 3 -30 -7 -56 -23 -66 -39 -145 -39 -195 -1 -32 24 -57 68 -40 68 4 0 74 7
157 15 172 17 180 21 171 94 -8 58 -42 117 -89 155 -35 28 -47 31 -115 34 -61
2 -85 -2 -113 -18z m161 -97 c16 -16 31 -39 32 -52 4 -30 -19 -37 -128 -42
-76 -4 -79 -3 -82 19 -3 16 8 35 36 62 50 51 96 54 142 13z"/>
<path d="M12225 3861 c-74 -19 -115 -67 -115 -138 0 -62 18 -92 72 -119 51
-26 88 -57 88 -74 0 -27 -41 -50 -91 -50 l-50 0 3 -47 3 -48 48 -3 c61 -4 131
28 158 72 50 81 26 159 -65 215 -30 18 -57 39 -60 47 -8 22 30 54 64 54 36 0
44 15 33 61 -10 37 -31 44 -88 30z"/>
<path d="M12545 3846 c-60 -28 -87 -56 -114 -116 -40 -87 -24 -205 36 -271 53
-58 102 -80 179 -80 116 0 198 61 231 170 60 208 -140 388 -332 297z m182
-107 c54 -51 68 -120 36 -186 -21 -46 -67 -73 -122 -73 -37 0 -49 6 -81 38
-50 49 -60 102 -31 166 26 60 71 89 129 83 27 -3 53 -14 69 -28z"/>
<path d="M14385 3852 c-96 -45 -153 -149 -142 -257 9 -90 57 -159 139 -201 45
-23 155 -21 205 5 168 85 179 337 19 435 -63 39 -159 47 -221 18z m149 -96
c66 -27 98 -111 71 -182 -24 -63 -65 -94 -125 -94 -85 0 -137 65 -128 161 4
37 12 58 34 81 47 49 88 59 148 34z"/>
<path d="M5336 3853 c-36 -4 -38 -6 -31 -31 4 -15 10 -118 12 -229 l4 -203 58
0 57 0 0 155 c-1 185 0 187 99 193 l65 4 0 54 0 54 -45 0 c-26 0 -63 -9 -85
-20 -49 -25 -50 -25 -50 5 0 27 1 26 -84 18z"/>
<path d="M8166 3853 c-38 -4 -38 -4 -32 -41 4 -20 9 -124 13 -229 l5 -193 54
0 54 0 0 149 c0 183 5 192 98 199 66 5 72 11 72 80 0 32 0 32 -51 32 -35 0
-63 -7 -85 -21 -37 -22 -54 -19 -54 12 0 12 -6 18 -17 17 -10 -1 -35 -3 -57
-5z"/>
<path d="M13145 3835 c-22 -13 -48 -29 -58 -35 -15 -9 -18 -6 -24 20 -6 31 -6
32 -52 25 -79 -11 -82 -12 -68 -43 7 -17 11 -95 12 -220 l0 -192 58 0 57 0 0
153 c0 170 1 172 77 211 38 19 54 20 87 5 38 -18 46 -58 46 -220 l0 -149 55 0
55 0 0 185 c0 208 -8 243 -59 269 -47 25 -138 21 -186 -9z"/>
<path d="M5642 3738 l3 -113 70 -100 c93 -134 105 -145 155 -145 37 0 43 4 88
61 26 33 64 88 85 122 l38 62 -3 110 -3 110 -52 3 -53 3 0 -97 c0 -88 -3 -101
-30 -153 -17 -31 -40 -67 -50 -81 l-20 -25 -23 28 c-13 15 -38 52 -57 83 -32
53 -33 59 -32 150 l1 94 -61 0 -60 0 4 -112z"/>
<path d="M9030 3745 c0 -61 5 -116 12 -128 25 -48 151 -218 168 -227 10 -6 35
-10 54 -10 33 0 41 6 94 78 110 148 113 156 110 279 l-3 108 -55 0 -55 0 3
-92 c4 -86 2 -96 -23 -140 -42 -73 -75 -114 -87 -107 -5 4 -31 38 -56 78 l-47
71 0 95 0 95 -57 3 -58 3 0 -106z"/>
<path d="M13484 3772 c3 -41 6 -144 6 -229 l0 -153 55 0 55 0 0 138 c0 77 3
179 6 229 l7 89 -68 0 -68 0 7 -74z"/>
</g>
</svg>
