<svg version="1.1" id="gmap-marker" xmlns="http://www.w3.org/2000/svg" xmlns:xlink="http://www.w3.org/1999/xlink" x="0px" y="0px"
	 width="100%" height="auto" viewBox="0 0 500 500" enable-background="new 0 0 500 500" xml:space="preserve">
<g>
	<path fill="#FFFFFF" d="M250,290.708c51.121,0,92.565-41.445,92.565-92.564c0-51.122-41.444-92.564-92.565-92.564
		s-92.565,41.442-92.565,92.564C157.435,249.263,198.879,290.708,250,290.708z"/>
</g>
<path fill-rule="evenodd" clip-rule="evenodd" fill="inherit" d="M397.01,178.869c-1.897-16.069-6.374-31.428-13.396-45.988
	c-15.638-32.421-39.572-56.629-72.229-71.943c-19.964-9.361-41.003-13.991-63.124-13.308c-10.086-0.393-19.975,1.006-29.794,3.166
	c-25.729,5.657-48.175,17.632-67.595,35.304c-10.635,9.677-19.625,20.755-27.078,33.075c-12.885,21.297-20.207,44.402-21.684,69.191
	c-0.76,12.759-0.224,25.54,2.192,38.225c3.661,19.216,10.503,37.129,20.987,53.604c7.42,11.659,15.928,22.57,23.975,33.799
	c12.324,17.199,24.701,34.359,37.064,51.53c16.617,23.074,33.234,46.15,49.869,69.213c3.977,5.514,8.02,10.979,12.031,16.466
	c1.818,2.648,1.83,2.657,3.671,0.104c10.296-14.288,20.583-28.584,30.877-42.873c28.278-39.257,56.436-78.604,84.878-117.743
	C392.015,257.169,401.857,219.977,397.01,178.869z M169.71,198.144c0-44.495,36.071-80.564,80.565-80.564
	s80.565,36.07,80.565,80.564c0,44.492-36.071,80.564-80.565,80.564S169.71,242.636,169.71,198.144z"/>
<path opacity="0.3" fill-rule="evenodd" clip-rule="evenodd" fill="#1D1D1B" d="M383.614,132.881
	c-15.638-32.421-39.572-56.629-72.229-71.943c-19.439-9.115-39.9-13.729-61.385-13.336v69.984c0.093,0,0.183-0.007,0.275-0.007
	c44.494,0,80.565,36.07,80.565,80.564c0,44.492-36.071,80.564-80.565,80.564c-0.093,0-0.183-0.007-0.275-0.007v174.492
	c0.479,0.069,0.942-0.559,1.9-1.888c10.296-14.288,20.583-28.584,30.877-42.873c28.278-39.257,56.436-78.604,84.878-117.743
	c24.359-33.521,34.202-70.713,29.354-111.82C395.112,162.8,390.636,147.441,383.614,132.881z"/>
</svg>
